<?xml version="1.0" encoding="UTF-8" standalone="no"?>
<!-- Generator: Adobe Illustrator 19.1.0, SVG Export Plug-In . SVG Version: 6.00 Build 0)  -->

<svg
   xmlns:dc="http://purl.org/dc/elements/1.1/"
   xmlns:cc="http://creativecommons.org/ns#"
   xmlns:rdf="http://www.w3.org/1999/02/22-rdf-syntax-ns#"
   xmlns:svg="http://www.w3.org/2000/svg"
   xmlns="http://www.w3.org/2000/svg"
   xmlns:sodipodi="http://sodipodi.sourceforge.net/DTD/sodipodi-0.dtd"
   xmlns:inkscape="http://www.inkscape.org/namespaces/inkscape"
   version="1.1"
   id="Layer_1"
   x="0px"
   y="0px"
   width="64px"
   height="16px"
   viewBox="0 0 64 16"
   enable-background="new 0 0 64 16"
   xml:space="preserve"
   sodipodi:docname="cd-icons.svg"
   inkscape:version="0.92.2 (5c3e80d, 2017-08-06)"><metadata
     id="metadata25"><rdf:RDF><cc:Work
         rdf:about=""><dc:format>image/svg+xml</dc:format><dc:type
           rdf:resource="http://purl.org/dc/dcmitype/StillImage" /></cc:Work></rdf:RDF></metadata><defs
     id="defs23"><linearGradient
       id="0"
       y1="48.610001"
       x2="0"
       y2="-1.22"
       gradientUnits="userSpaceOnUse"
       gradientTransform="matrix(0.33333334,0,0,0.33333333,32.000001,1.166272e-6)"><stop
         stop-color="#c52828"
         id="stop2" /><stop
         stop-color="#ff5454"
         offset="1"
         id="stop4" /></linearGradient><filter
       inkscape:collect="always"
       style="color-interpolation-filters:sRGB"
       id="filter4884"
       x="-0.012"
       width="1.024"
       y="-0.012"
       height="1.024"><feGaussianBlur
         inkscape:collect="always"
         stdDeviation="0.073718884"
         id="feGaussianBlur4886" /></filter></defs><sodipodi:namedview
     pagecolor="#ffffff"
     bordercolor="#666666"
     borderopacity="1"
     objecttolerance="10"
     gridtolerance="10"
     guidetolerance="10"
     inkscape:pageopacity="0"
     inkscape:pageshadow="2"
     inkscape:window-width="1920"
     inkscape:window-height="1006"
     id="namedview21"
     showgrid="false"
     inkscape:zoom="6.390625"
     inkscape:cx="-37.476773"
     inkscape:cy="6.7481662"
     inkscape:window-x="0"
     inkscape:window-y="45"
     inkscape:window-maximized="1"
     inkscape:current-layer="Layer_1" /><g
     transform="translate(0, 0)"
     id="g4"><polygon
       fill="#FFFFFF"
       points="8,12.6000004 0.3,4.9000001 1.7,3.4000001 8,9.6999998 14.3000002,3.4000001 15.6999998,4.9000001     "
       id="polygon2" /></g><g
     id="g12"
     transform="matrix(0.03125,0,0,0.03125,15.94132,0.01955988)"><path
       d="M 512,255.999 C 512,114.483 397.427,0 255.811,0 114.577,0 0,114.483 0,255.999 0,397.118 114.577,512 255.811,512 397.427,512 512,397.118 512,255.999 Z"
       style="clip-rule:evenodd;fill:#88c5cc;fill-rule:evenodd"
       id="path2"
       inkscape:connector-curvature="0" /><path
       d="m 162.709,118.858 h 193.736 l 44.16,193.987 h -16.308 l -0.399,68.771 h 16.707 v 11.528 H 138.449 c -25.064,-1.989 -22.68,-46.107 -23.872,-58.038 l 21.887,-197.172 c 0,-8.742 9.14,-19.076 26.245,-19.076 z"
       style="clip-rule:evenodd;fill:#ffd05b;fill-rule:evenodd"
       id="path4"
       inkscape:connector-curvature="0" /><path
       d="m 162.709,118.858 h 18.313 L 164.3,393.146 h -25.851 c -30.628,-3.583 -31.422,-51.679 -21.886,-77.916 l 19.9,-177.294 c 0.001,-8.744 9.141,-19.078 26.246,-19.078 z"
       style="clip-rule:evenodd;fill:#324a5e;fill-rule:evenodd"
       id="path6"
       inkscape:connector-curvature="0" /><path
       d="M 141.632,312.846 H 395.44 c -11.542,23.453 -11.143,46.904 0,69.564 H 141.632 c -27.055,0 -27.055,-69.564 0,-69.564 z"
       style="clip-rule:evenodd;fill:#fefefe;fill-rule:evenodd"
       id="path8"
       inkscape:connector-curvature="0" /><path
       d="m 125.321,325.969 h 264.951 c -0.398,0.789 -0.398,1.587 -0.794,2.383 H 124.527 c 0.399,-0.796 0.399,-1.594 0.794,-2.383 z m 262.965,7.552 c 0,0.793 0,1.191 -0.398,1.984 H 122.542 c 0,-0.793 0.395,-1.191 0.395,-1.984 z m -0.797,7.157 c -0.396,0.789 -0.396,1.586 -0.396,1.98 H 121.35 c 0.395,-0.395 0.395,-1.191 0.395,-1.98 z m -0.395,7.551 c 0,0.395 0,1.191 0,1.985 H 121.35 c 0,-0.794 0,-1.591 0,-1.985 z m 0.395,7.154 c 0,0.793 0,1.59 0,1.984 H 122.143 c 0,-0.395 -0.398,-1.191 -0.398,-1.984 z m 1.193,7.153 c 0,0.797 0.398,1.595 0.398,2.383 H 123.734 c -0.399,-0.788 -0.399,-1.586 -0.399,-2.383 z m 1.989,7.556 c 0,0.793 0.396,1.191 0.396,1.984 H 127.312 c -0.399,-0.394 -0.798,-0.793 -1.192,-1.191 -0.399,-0.395 -0.399,-0.793 -0.399,-0.793 z"
       style="clip-rule:evenodd;fill:#ecf0f1;fill-rule:evenodd"
       id="path10-6"
       inkscape:connector-curvature="0" /></g><circle
     style="fill:url(#0);fill-rule:evenodd;stroke-width:0.33333334"
     cy="8"
     cx="40"
     id="circle9"
     r="8" /><g
     style="fill:#ffffff;fill-opacity:0.85500004;enable-background:new"
     transform="matrix(0.33333,0,0,0.33333,17.543334,6.9606679)"
     id="g15"><path
       inkscape:connector-curvature="0"
       d="m 66.828,-5.545 c -0.235,-0.809 -1.026,-1.337 -2.273,-1.52 -0.993,-0.145 -3.737,0 -8.896,0.465 -3.635,0.329 -3.63,0.328 -3.843,0.749 -0.095,0.188 -0.1,0.749 -0.086,9.825 l 0.015,9.625 0.14,0.149 c 0.253,0.269 0.406,0.275 2.309,0.092 6.134,-0.59 9.596,-0.767 10.684,-0.548 0.536,0.108 1.18,0.395 1.484,0.662 0.224,0.197 0.486,0.646 0.511,0.875 0.008,0.072 0.021,-4.415 0.029,-9.972 0.013,-8.874 0.004,-10.14 -0.072,-10.403"
       id="path11" /><path
       inkscape:connector-curvature="0"
       d="m 68.05,14.381 c 0.25,-0.486 0.97,-0.916 1.821,-1.088 1.129,-0.228 4.913,-0.024 11.284,0.606 1.261,0.125 1.468,0.107 1.709,-0.15 l 0.14,-0.149 0.015,-9.625 c 0.014,-9.08 0.009,-9.636 -0.086,-9.825 -0.136,-0.269 -0.371,-0.392 -0.882,-0.461 -0.591,-0.08 -5.142,-0.49 -7.136,-0.642 -2.175,-0.166 -4.627,-0.183 -5.2,-0.035 -0.832,0.214 -1.417,0.622 -1.692,1.182 l -0.162,0.329 -0.009,10.22 c -0.005,5.621 10e-4,10.142 0.034,10.05 0.023,-0.095 0.097,-0.279 0.164,-0.408"
       id="path13" /></g><rect
     style="fill:#00d455;fill-opacity:1;stroke:#00aa44;stroke-width:1.25622344;stroke-miterlimit:4;stroke-dasharray:none;stroke-opacity:1;opacity:0.91;filter:url(#filter4884)"
     id="rect5458"
     width="14.743777"
     height="14.743776"
     x="48.628109"
     y="0.62808621"
     ry="1.6239524"
     rx="1.1997077" /><path
     inkscape:connector-curvature="0"
     style="fill:#ffffff;fill-opacity:1;fill-rule:nonzero;stroke:#ffffff;stroke-width:0.55097514;stroke-linecap:round;stroke-linejoin:round;stroke-miterlimit:4;stroke-dasharray:none;stroke-opacity:1"
     id="rect2995"
     d="M 54.467805,4.8549043 V 11.142378 L 58.338244,7.9986409 Z"
     sodipodi:nodetypes="cccc" /></svg>